name symmetric_stride_kinematics_IKTD_Plus_4.mot
datacolumns 38
datarows 11
range 0.00000000 0.01103433
endheader
                time	/jointset/ground_pelvis/pelvis_tilt/value	/jointset/ground_pelvis/pelvis_list/value	/jointset/ground_pelvis/pelvis_rotation/value	/jointset/ground_pelvis/pelvis_tx/value	/jointset/ground_pelvis/pelvis_ty/value	/jointset/ground_pelvis/pelvis_tz/value	/jointset/hip_r/hip_flexion_r/value	/jointset/hip_r/hip_adduction_r/value	/jointset/hip_r/hip_rotation_r/value	/jointset/knee_r/knee_angle_r/value	/jointset/ankle_r/ankle_angle_r/value	/jointset/subtalar_r/subtalar_angle_r/value	/jointset/mtp_r/mtp_angle_r/value	/jointset/hip_l/hip_flexion_l/value	/jointset/hip_l/hip_adduction_l/value	/jointset/hip_l/hip_rotation_l/value	/jointset/knee_l/knee_angle_l/value	/jointset/ankle_l/ankle_angle_l/value	/jointset/subtalar_l/subtalar_angle_l/value	/jointset/mtp_l/mtp_angle_l/value	/jointset/back/lumbar_extension/value	/jointset/back/lumbar_bending/value	/jointset/back/lumbar_rotation/value	/jointset/acromial_r/arm_flex_r/value	/jointset/acromial_r/arm_add_r/value	/jointset/acromial_r/arm_rot_r/value	/jointset/elbow_r/elbow_flex_r/value	/jointset/radioulnar_r/pro_sup_r/value	/jointset/radius_hand_r/wrist_flex_r/value	/jointset/radius_hand_r/wrist_dev_r/value	/jointset/acromial_l/arm_flex_l/value	/jointset/acromial_l/arm_add_l/value	/jointset/acromial_l/arm_rot_l/value	/jointset/elbow_l/elbow_flex_l/value	/jointset/radioulnar_l/pro_sup_l/value	/jointset/radius_hand_l/wrist_flex_l/value	/jointset/radius_hand_l/wrist_dev_l/value	
          0.00000000	         -7.32184545	         -2.94324684	         -4.08886385	         -0.00000000	          0.99800212	          0.30447490	         34.40867438	          2.83124671	         -0.14994505	        -17.63171359	        -22.14328020	        -15.97465360	          0.19687203	         20.52439031	        -11.90295917	         -4.03112820	       -118.53295324	         -8.78432075	        -19.94496345	         -3.54916093	        -18.07238459	          6.83945270	         -5.77865638	         -6.09382094	        -25.95014152	        -14.83520568	         91.49010449	         75.50201864	        -23.37888679	          5.14732421	         -0.45028217	        -23.61445678	        -14.59088724	         73.51448895	         54.95154707	         -0.25489255	          5.46648025	
          0.00064685	         -7.42144037	         -2.87242011	         -4.40355113	          0.00774457	          0.99752820	          0.30470018	         34.12470583	          2.89592214	         -0.20379451	        -17.46502399	        -21.61534059	        -15.43199704	          0.43191639	         20.95735028	        -11.92755956	         -4.23267657	       -118.90559952	         -8.58331295	        -20.03482219	         -3.46463972	        -17.93117521	          6.74329025	         -5.57910668	         -5.13353972	        -25.89848509	        -14.78713987	         91.71960855	         75.79427216	        -23.29302195	          5.14213122	         -1.07079097	        -23.39830471	        -14.52334390	         73.29980821	         55.32099579	         -0.32785379	          5.51028645	
          0.00269063	         -7.73649111	         -2.63027465	         -5.41084007	          0.03222480	          0.99594167	          0.30540407	         33.22404521	          3.08136336	         -0.28326230	        -16.97394401	        -19.83149579	        -13.90129450	          1.08811269	         22.33834696	        -12.01064236	         -4.87506705	       -120.06966266	         -7.95997825	        -20.31220128	         -3.39246665	        -17.47214559	          6.42919311	         -4.92073018	         -2.09324242	        -25.71922128	        -14.59206950	         92.40907560	         76.85432217	        -22.99592406	          5.15162214	         -3.00638141	        -22.68242639	        -14.26989003	         72.69588167	         56.49635684	         -0.53528353	          5.70338517	
          0.00417185	         -7.96364113	         -2.43787005	         -6.15041692	          0.04997791	          0.99470974	          0.30590271	         32.56768273	          3.19476834	         -0.25574011	        -16.65986144	        -18.45669268	        -12.97450213	          1.59311775	         23.35097829	        -12.07624354	         -5.34334008	       -120.90008688	         -7.52130195	        -20.51026359	         -3.52522869	        -17.12851509	          6.19363428	         -4.41835037	          0.10976025	        -25.57567527	        -14.41447769	         92.88281658	         77.69714371	        -22.76841082	          5.16403594	         -4.38718649	        -22.14094437	        -14.03276191	         72.32292128	         57.35125433	         -0.67276862	          5.86490967	
          0.00417185	         -7.96364113	         -2.43787005	         -6.15041692	          0.04997791	          0.99470974	          0.30590271	         32.56768273	          3.19476834	         -0.25574011	        -16.65986144	        -18.45669268	        -12.97450213	          1.59311775	         23.35097829	        -12.07624354	         -5.34334008	       -120.90008688	         -7.52130195	        -20.51026359	         -3.52522869	        -17.12851509	          6.19363428	         -4.41835037	          0.10976025	        -25.57567527	        -14.41447769	         92.88281658	         77.69714371	        -22.76841082	          5.16403594	         -4.38718649	        -22.14094437	        -14.03276191	         72.32292128	         57.35125433	         -0.67276862	          5.86490967	
          0.00481870	         -8.06145159	         -2.34948826	         -6.47513515	          0.05773406	          0.99415184	          0.30611640	         32.27930200	          3.23781391	         -0.22182224	        -16.53619397	        -17.83932208	        -12.61705816	          1.84995211	         23.79532982	        -12.10621287	         -5.54792004	       -121.25896676	         -7.33375067	        -20.59687030	         -3.62572841	        -16.97670843	          6.08896871	         -4.19271076	          1.07023490	        -25.50969830	        -14.32895562	         93.08522780	         78.06733712	        -22.66873609	          5.16769942	         -4.98489599	        -21.90095216	        -13.91097418	         72.17658056	         57.72123235	         -0.73249549	          5.93576887	
          0.00686248	         -8.36653270	         -2.05302298	         -7.50436544	          0.08225522	          0.99230629	          0.30676982	         31.36424261	          3.34331247	         -0.03313203	        -16.21132293	        -15.79131455	        -11.61609334	          2.84029249	         25.21134066	        -12.20589883	         -6.19096204	       -122.37773701	         -6.76863475	        -20.88042274	         -3.91349306	        -16.48753821	          5.75311350	         -3.45584523	          4.08983780	        -25.28730355	        -14.04309174	         93.71831298	         79.21983059	        -22.35310371	          5.17506032	         -6.85527877	        -21.14224580	        -13.42693879	         71.78735119	         58.86653547	         -0.93430689	          6.18510258	
          0.00834370	         -8.58190534	         -1.82542611	         -8.24958883	          0.10004244	          0.99089737	          0.30721800	         30.69583955	          3.38941962	          0.16580821	        -16.05355750	        -14.23063125	        -10.99759643	          3.72784908	         26.24807539	        -12.28501004	         -6.64848038	       -123.17383083	         -6.38297597	        -21.09331568	         -4.02565797	        -16.12689758	          5.50929205	         -2.90081197	          6.25924825	        -25.11317153	        -13.83256105	         94.17829417	         80.05959124	        -22.12320958	          5.17150150	         -8.19668159	        -20.59298816	        -12.98846143	         71.57471203	         59.65419564	         -1.08769058	          6.37696602	
          0.00834370	         -8.58190534	         -1.82542611	         -8.24958883	          0.10004244	          0.99089737	          0.30721800	         30.69583955	          3.38941962	          0.16580821	        -16.05355750	        -14.23063125	        -10.99759643	          3.72784908	         26.24807539	        -12.28501004	         -6.64848038	       -123.17383083	         -6.38297597	        -21.09331568	         -4.02565797	        -16.12689758	          5.50929205	         -2.90081197	          6.25924825	        -25.11317153	        -13.83256105	         94.17829417	         80.05959124	        -22.12320958	          5.17150150	         -8.19668159	        -20.59298816	        -12.98846143	         71.57471203	         59.65419564	         -1.08769058	          6.37696602	
          0.00899055	         -8.67394389	         -1.72359668	         -8.57380058	          0.10781455	          0.99026526	          0.30740582	         30.40215712	          3.40121542	          0.26565918	        -16.00868056	        -13.52898031	        -10.75065481	          4.14660647	         26.70338067	        -12.32183162	         -6.84459048	       -123.51750571	         -6.22014483	        -21.18757981	         -4.03610340	        -15.96858533	          5.40380219	         -2.65352259	          7.20055014	        -25.03378846	        -13.74252651	         94.38128079	         80.43307338	        -22.02233935	          5.16640238	         -8.77988331	        -20.35289800	        -12.77771898	         71.50105922	         59.98092016	         -1.15562280	          6.46136050	
          0.01103433	         -8.94137930	         -1.39669882	         -9.58843843	          0.13239320	          0.98823085	          0.30796195	         29.45118087	          3.40215505	          0.60736374	        -15.98682460	        -11.23142785	        -10.06254998	          5.46970889	         28.13516923	        -12.44721199	         -7.44436686	       -124.58479522	         -5.71264553	        -21.47954986	         -3.96616851	        -15.48368226	          5.07750814	         -1.85556561	         10.15023500	        -24.77364911	        -13.46683510	         95.03987163	         81.60142556	        -21.70363055	          5.14296825	        -10.60716325	        -19.59833151	        -12.03495221	         71.33546251	         61.01712773	         -1.38459189	          6.76954237	
